# xmcd
#
# Track frame offsets: 
#        150
#        22372
#        38212
#        56207
#        71415
#        84380
#        96212
#        109085
#        119435
#        132230
#        147695
#        197840
#        211965
#        225247
#        240017
#
# Disc length: 4404 seconds
#
# Revision: 33
# Processed by: cddbd v1.5.2PL0 Copyright (c) Steve Scherf et al.
# Submitted via: ExactAudioCopyFreeDBPlugin 1.0
#
DISCID=d511320f
DTITLE=Canned Heat - On the Road Again
DYEAR=1989
DGENRE=Blues Rock
TTITLE0=On The Road Again
TTITLE1=Amphetamine Annie
TTITLE2=My Crime
TTITLE3=Time Was
TTITLE4=Going Up The Country
TTITLE5=Sugar Bee
TTITLE6=Whiskey Headed Woman
TTITLE7=Bullfrog Blues
TTITLE8=Let's Work Together
TTITLE9=World In A Jug
TTITLE10=Fried Hockey Boogie
TTITLE11=Rollin' And Tumblin'
TTITLE12=I'm Her Man
TTITLE13=Dust My Broom
TTITLE14=Parthenogenesis
EXTD=YEAR: 1997
EXTT0=
EXTT1=
EXTT2=
EXTT3=
EXTT4=
EXTT5=
EXTT6=
EXTT7=
EXTT8=
EXTT9=
EXTT10=
EXTT11=
EXTT12=
EXTT13=
EXTT14=
PLAYORDER=
